<?xml version="1.0" standalone="no"?>
<!DOCTYPE svg PUBLIC "-//W3C//DTD SVG 20010904//EN"
 "http://www.w3.org/TR/2001/REC-SVG-20010904/DTD/svg10.dtd">
<svg version="1.0" xmlns="http://www.w3.org/2000/svg"
 width="596.000000pt" height="596.000000pt" viewBox="0 0 596.000000 596.000000"
 preserveAspectRatio="xMidYMid meet">
<metadata>
Created by potrace 1.14, written by Peter Selinger 2001-2017
</metadata>
<g transform="translate(0.000000,596.000000) scale(0.100000,-0.100000)"
fill="#000000" stroke="none">
<path d="M2884 5882 c-34 -42 -74 -99 -89 -127 -16 -27 -33 -53 -38 -56 -5 -3
-9 -10 -10 -15 0 -5 -9 -29 -19 -54 -11 -25 -23 -54 -28 -65 -7 -16 -32 -107
-35 -125 -1 -3 -4 -18 -8 -35 -11 -48 -23 -206 -17 -225 0 -3 3 -41 5 -85 3
-44 7 -91 10 -105 3 -14 8 -36 10 -50 3 -23 40 -182 51 -222 4 -15 -1 -17 -43
-12 -26 2 -61 7 -78 10 -16 3 -39 7 -50 9 -62 10 -102 17 -115 20 -8 3 -33 7
-55 11 -22 3 -43 8 -46 10 -4 2 -24 6 -44 10 -21 3 -47 8 -59 10 -102 21 -218
32 -306 28 -86 -3 -203 -12 -207 -15 -2 -1 -11 -2 -20 -3 -17 -2 -75 -12 -138
-23 -16 -3 -37 -6 -45 -7 -9 -1 -21 -5 -28 -10 -6 -4 -12 -5 -12 -3 0 5 -140
-30 -180 -46 -8 -3 -40 -13 -70 -23 -148 -45 -380 -173 -505 -276 -61 -51
-203 -198 -233 -243 -15 -22 -29 -42 -32 -45 -3 -3 -24 -36 -47 -75 -123 -205
-194 -427 -230 -720 -10 -78 -10 -458 0 -559 11 -105 16 -143 24 -191 3 -22 7
-47 8 -55 6 -46 17 -105 21 -111 2 -3 6 -25 9 -49 3 -23 7 -46 10 -50 3 -4 7
-25 11 -46 3 -22 21 -95 41 -164 19 -69 36 -132 38 -140 2 -8 4 -15 4 -15 2 0
81 -230 85 -245 17 -67 203 -462 267 -567 21 -35 39 -68 39 -73 0 -6 4 -10 10
-10 5 0 9 -3 8 -8 -3 -8 154 -245 178 -269 7 -8 14 -17 14 -21 0 -4 15 -24 33
-44 17 -20 43 -51 57 -69 37 -49 227 -239 290 -291 81 -67 186 -140 260 -180
36 -19 76 -41 90 -49 14 -7 27 -14 30 -14 3 0 37 -12 75 -26 112 -41 146 -51
225 -62 8 -2 20 -5 25 -9 13 -8 349 -2 395 7 93 18 177 35 198 40 12 3 30 7
40 9 9 2 29 9 45 15 15 6 27 7 27 4 0 -4 5 -2 12 5 7 7 19 12 27 12 9 0 43 14
76 30 33 17 63 30 68 30 4 0 21 10 37 22 l29 21 68 -31 c101 -46 188 -79 253
-97 212 -59 323 -74 505 -70 83 2 161 6 175 9 14 4 36 9 50 12 40 8 133 34
155 44 11 5 56 25 100 45 90 40 235 125 235 137 0 4 5 8 11 8 16 0 146 107
242 200 129 125 287 318 377 460 19 30 37 57 41 60 3 3 16 23 28 45 11 22 37
67 56 100 78 132 228 445 234 488 0 4 7 20 15 35 19 38 117 321 123 357 3 17
8 37 13 45 4 8 17 58 29 110 13 52 25 102 28 110 3 8 7 22 8 30 5 29 16 85 20
100 2 8 6 32 9 52 10 65 17 110 22 132 3 11 7 46 9 76 3 30 7 71 11 90 8 49
15 510 8 522 -4 5 -8 38 -9 71 -6 109 -55 338 -96 442 -4 11 -18 47 -30 80
-13 33 -27 66 -32 72 -5 7 -22 39 -38 70 -30 59 -36 70 -102 166 -43 62 -168
194 -242 254 -221 178 -518 305 -860 368 -54 10 -158 24 -215 30 -25 2 -74 7
-110 10 -82 8 -337 9 -410 1 -31 -3 -88 -12 -128 -21 -40 -8 -76 -14 -80 -13
-4 1 -27 -4 -52 -12 -25 -7 -54 -14 -65 -15 -60 -8 -105 -16 -134 -25 -17 -5
-34 -9 -36 -9 -3 0 -18 -2 -33 -5 -53 -10 -137 -22 -202 -29 -19 -1 -25 3 -25
18 -1 39 46 171 100 280 68 141 152 267 359 540 91 120 166 222 166 226 0 4
-12 10 -27 13 -38 10 -372 115 -403 128 -14 5 -35 12 -47 14 -12 2 -35 9 -50
16 -53 21 -57 19 -119 -60z"/>
</g>
</svg>
